# xmcd
#
# Track frame offsets:
#	150
#	39367
#	53199
#	73545
#
# Disc length: 1195 seconds
#
# Revision: 1
# Processed by: cddbd v1.5.1PL0 Copyright (c) Steve Scherf et al.
# Submitted via: CDex 1.50Beta5
#
DISCID=2e04a904
DTITLE=Jils - Bible E.P.
DYEAR=2003
DGENRE=Pop
TTITLE0=聖書 -Bible-
TTITLE1=詠壊
TTITLE2=So White
TTITLE3=欠月 -未完成胸響曲-
EXTD=
EXTT0=
EXTT1=
EXTT2=
EXTT3=
PLAYORDER=
